<svg [attr.width]="width()" [attr.height]="height()" viewBox="0 -960 960 960">
    <!--https://fonts.google.com/icons-->
    @switch (image()) {
    @case ("color-convert") {
    <path fill="currentcolor" stroke="currentcolor" 
        d="M480-80q-82 0-155-31.5t-127.5-86Q143-252 111.5-325T80-480q0-83 32.5-156t88-127Q256-817 330-848.5T488-880q80 0 151 27.5t124.5 76q53.5 48.5 85 115T880-518q0 115-70 176.5T640-280h-74q-9 0-12.5 5t-3.5 11q0 12 15 34.5t15 51.5q0 50-27.5 74T480-80Zm0-400Zm-220 40q26 0 43-17t17-43q0-26-17-43t-43-17q-26 0-43 17t-17 43q0 26 17 43t43 17Zm120-160q26 0 43-17t17-43q0-26-17-43t-43-17q-26 0-43 17t-17 43q0 26 17 43t43 17Zm200 0q26 0 43-17t17-43q0-26-17-43t-43-17q-26 0-43 17t-17 43q0 26 17 43t43 17Zm120 160q26 0 43-17t17-43q0-26-17-43t-43-17q-26 0-43 17t-17 43q0 26 17 43t43 17ZM480-160q9 0 14.5-5t5.5-13q0-14-15-33t-15-57q0-42 29-67t71-25h70q66 0 113-38.5T800-518q0-121-92.5-201.5T488-800q-136 0-232 93t-96 227q0 133 93.5 226.5T480-160Z"
    />
    }
    @case ("password-generator") {
    <path fill="currentcolor" stroke="currentcolor" 
        d="M80-200v-80h800v80H80Zm46-242-52-30 34-60H40v-60h68l-34-58 52-30 34 58 34-58 52 30-34 58h68v60h-68l34 60-52 30-34-60-34 60Zm320 0-52-30 34-60h-68v-60h68l-34-58 52-30 34 58 34-58 52 30-34 58h68v60h-68l34 60-52 30-34-60-34 60Zm320 0-52-30 34-60h-68v-60h68l-34-58 52-30 34 58 34-58 52 30-34 58h68v60h-68l34 60-52 30-34-60-34 60Z"
    />
    }
    @case ("permission-generator") {
    <path fill="currentcolor" stroke="currentcolor" 
        d="M400-480q-66 0-113-47t-47-113q0-66 47-113t113-47q66 0 113 47t47 113q0 66-47 113t-113 47ZM80-160v-112q0-33 17-62t47-44q51-26 115-44t141-18h14q6 0 12 2-8 18-13.5 37.5T404-360h-4q-71 0-127.5 18T180-306q-9 5-14.5 14t-5.5 20v32h252q6 21 16 41.5t22 38.5H80Zm560 40-12-60q-12-5-22.5-10.5T584-204l-58 18-40-68 46-40q-2-14-2-26t2-26l-46-40 40-68 58 18q11-8 21.5-13.5T628-460l12-60h80l12 60q12 5 22.5 11t21.5 15l58-20 40 70-46 40q2 12 2 25t-2 25l46 40-40 68-58-18q-11 8-21.5 13.5T732-180l-12 60h-80Zm40-120q33 0 56.5-23.5T760-320q0-33-23.5-56.5T680-400q-33 0-56.5 23.5T600-320q0 33 23.5 56.5T680-240ZM400-560q33 0 56.5-23.5T480-640q0-33-23.5-56.5T400-720q-33 0-56.5 23.5T320-640q0 33 23.5 56.5T400-560Zm0-80Zm12 400Z"
    />
    }
    @case ("change-case") {
    <path fill="currentcolor" stroke="currentcolor" 
        d="m131-252 165-440h79l165 440h-76l-39-112H247l-40 112h-76Zm139-176h131l-64-182h-4l-63 182Zm395 186q-51 0-81-27.5T554-342q0-44 34.5-72.5T677-443q23 0 45 4t38 11v-12q0-29-20.5-47T685-505q-23 0-42 9.5T610-468l-47-35q24-29 54.5-43t68.5-14q69 0 103 32.5t34 97.5v178h-63v-37h-4q-14 23-38 35t-53 12Zm12-54q35 0 59.5-24t24.5-56q-14-8-33.5-12.5T689-393q-32 0-50 14t-18 37q0 20 16 33t40 13Z"
    />
    }
    @case ("lorem-ipsum") {
    <path fill="currentcolor" stroke="currentcolor" 
        d="M280-280h280v-80H280v80Zm0-160h400v-80H280v80Zm0-160h400v-80H280v80Zm-80 480q-33 0-56.5-23.5T120-200v-560q0-33 23.5-56.5T200-840h560q33 0 56.5 23.5T840-760v560q0 33-23.5 56.5T760-120H200Zm0-80h560v-560H200v560Zm0-560v560-560Z"
    />
    }
    @case ("lorem-image") {
    <path fill="currentcolor" stroke="currentcolor" 
        d="M200-120q-33 0-56.5-23.5T120-200v-560q0-33 23.5-56.5T200-840h560q33 0 56.5 23.5T840-760v560q0 33-23.5 56.5T760-120H200Zm0-80h560v-560H200v560Zm40-80h480L570-480 450-320l-90-120-120 160Zm-40 80v-560 560Z"
    />
    }
    @case ("toggle") {
    <path fill="currentcolor" stroke="currentcolor" 
        d="M360-120v-720h80v720h-80Zm160-160v-400l200 200-200 200Z"
    />
    }
    @case ("dayNight") {
    <path fill="currentcolor" stroke="currentcolor" 
        d="M480-80q-83 0-156-31.5T197-197q-54-54-85.5-127T80-480q0-83 31.5-156T197-763q54-54 127-85.5T480-880q83 0 156 31.5T763-763q54 54 85.5 127T880-480q0 83-31.5 156T763-197q-54 54-127 85.5T480-80Zm40-83q119-15 199.5-104.5T800-480q0-123-80.5-212.5T520-797v634Z"
    />
    }
    @case ("roundEmpty") {
    <path fill="currentcolor" stroke="currentcolor" 
        d="M480-80q-83 0-156-31.5T197-197q-54-54-85.5-127T80-480q0-83 31.5-156T197-763q54-54 127-85.5T480-880q83 0 156 31.5T763-763q54 54 85.5 127T880-480q0 83-31.5 156T763-197q-54 54-127 85.5T480-80Zm0-80q134 0 227-93t93-227q0-134-93-227t-227-93q-134 0-227 93t-93 227q0 134 93 227t227 93Zm0-320Z"
    />
    }
    @case ("checkboxRound") {
    <path fill="currentcolor" stroke="currentcolor" 
        d="M480-80q-83 0-156-31.5T197-197q-54-54-85.5-127T80-480q0-83 31.5-156T197-763q54-54 127-85.5T480-880q65 0 123 19t107 53l-58 59q-38-24-81-37.5T480-800q-133 0-226.5 93.5T160-480q0 133 93.5 226.5T480-160q133 0 226.5-93.5T800-480q0-18-2-36t-6-35l65-65q11 32 17 66t6 70q0 83-31.5 156T763-197q-54 54-127 85.5T480-80Zm-56-216L254-466l56-56 114 114 400-401 56 56-456 457Z"
    />
    }
    @case ("radioRound") {
    <path fill="currentcolor" stroke="currentcolor" 
        d="M480-280q83 0 141.5-58.5T680-480q0-83-58.5-141.5T480-680q-83 0-141.5 58.5T280-480q0 83 58.5 141.5T480-280Zm0 200q-83 0-156-31.5T197-197q-54-54-85.5-127T80-480q0-83 31.5-156T197-763q54-54 127-85.5T480-880q83 0 156 31.5T763-763q54 54 85.5 127T880-480q0 83-31.5 156T763-197q-54 54-127 85.5T480-80Zm0-80q134 0 227-93t93-227q0-134-93-227t-227-93q-134 0-227 93t-93 227q0 134 93 227t227 93Zm0-320Z"
    />
    }
    @case ("refresh") {
    <path fill="currentcolor" stroke="currentcolor" 
        d="M480-160q-134 0-227-93t-93-227q0-134 93-227t227-93q69 0 132 28.5T720-690v-110h80v280H520v-80h168q-32-56-87.5-88T480-720q-100 0-170 70t-70 170q0 100 70 170t170 70q77 0 139-44t87-116h84q-28 106-114 173t-196 67Z"
    />
    }
    @case ("eye") {
    <path fill="currentcolor" stroke="currentcolor" 
        d="M480-320q75 0 127.5-52.5T660-500q0-75-52.5-127.5T480-680q-75 0-127.5 52.5T300-500q0 75 52.5 127.5T480-320Zm0-72q-45 0-76.5-31.5T372-500q0-45 31.5-76.5T480-608q45 0 76.5 31.5T588-500q0 45-31.5 76.5T480-392Zm0 192q-146 0-266-81.5T40-500q54-137 174-218.5T480-800q146 0 266 81.5T920-500q-54 137-174 218.5T480-200Zm0-300Zm0 220q113 0 207.5-59.5T832-500q-50-101-144.5-160.5T480-720q-113 0-207.5 59.5T128-500q50 101 144.5 160.5T480-280Z"
    />
    }
        @case ("download") {
    <path fill="currentcolor" stroke="currentcolor" 
        d="M480-320 280-520l56-58 104 104v-326h80v326l104-104 56 58-200 200ZM240-160q-33 0-56.5-23.5T160-240v-120h80v120h480v-120h80v120q0 33-23.5 56.5T720-160H240Z"
    />
    }
    @default {
    <path fill="red" stroke="red"
        d="M330-120 120-330v-300l210-210h300l210 210v300L630-120H330Zm36-190 114-114 114 114 56-56-114-114 114-114-56-56-114 114-114-114-56 56 114 114-114 114 56 56Zm-2 110h232l164-164v-232L596-760H364L200-596v232l164 164Zm116-280Z"
    />
    }
    }
</svg>